<?xml version="1.0"?><svg width="640" height="480" xmlns="http://www.w3.org/2000/svg">
 <g>
  <title>Layer 1</title>
  <path d="m329.102539,43.499981l1.333252,0l5.743073,2.973339q5.743134,2.973339 7.589142,3.896099q1.845978,0.922764 12.563049,5.997936q10.717041,5.075188 11.075958,5.12645q0.358948,0.051262 5.691864,2.40942q5.332855,2.358158 8.204468,3.485996q2.871552,1.127808 8.306915,3.075867q5.435486,1.948029 6.871185,2.460678q1.435822,0.51265 3.589447,1.230354q2.153748,0.71769 5.538055,1.742973q3.384369,1.025307 8.614655,2.460709q5.230347,1.435394 10.153015,2.563217q4.922638,1.1278 6.358368,1.435394q1.435822,0.307594 9.127502,1.743019q7.691681,1.435394 9.640228,1.742973q1.948517,0.307594 9.537689,1.537949q7.589111,1.230324 7.69162,1.230324q0.102509,0 7.384064,1.435425q7.281403,1.435394 7.332581,1.486649l0.051331,0.051277l-0.307678,15.276779q-0.307678,15.276794 -1.53833,39.473633q-1.230621,24.196808 -1.948517,33.834503q-0.717926,9.637711 -1.640869,16.507187q-0.923035,6.8694 -2.153687,13.021133q-1.230621,6.151733 -2.666443,12.405991q-1.435822,6.254257 -2.563904,10.970566q-1.128113,4.71637 -2.666443,10.150375q-1.53833,5.434052 -1.846039,6.561844q-0.307648,1.127777 -0.922943,2.870789q-0.615356,1.743011 -1.43576,4.306229q-0.820435,2.563202 -2.563934,7.38208q-1.743439,4.818848 -2.871552,7.689667q-1.128113,2.870819 -2.769012,6.869446q-1.640839,3.998627 -4.204681,9.637726q-2.563934,5.639038 -3.076721,6.561829q-0.512817,0.922791 -3.743286,6.715637q-3.230499,5.792877 -3.897095,6.869415q-0.666626,1.076538 -3.17923,5.434082q-2.512573,4.357422 -3.281738,5.53656q-0.769165,1.179047 -2.358826,3.69104q-1.5896,2.511932 -2.563843,3.896088q-0.974243,1.384094 -2.256226,3.280884q-1.281952,1.89682 -2.461334,3.485992q-1.179382,1.589203 -1.846008,2.665741q-0.666656,1.076569 -1.948547,2.76828q-1.281952,1.691772 -2.461304,3.383484q-1.179443,1.691681 -2.563934,3.485992q-1.384491,1.79422 -2.358795,3.075836q-0.974274,1.281616 -4.153534,4.870117q-3.17923,3.588501 -7.486481,8.202301q-4.307343,4.6138 -7.589111,7.894745q-3.281738,3.280884 -4.358612,4.152374q-1.076843,0.871521 -5.025238,4.408752q-3.948395,3.537262 -4.820068,4.306244q-0.871765,0.768982 -4.307343,3.793518q-3.435638,3.024597 -4.512451,3.896118q-1.076843,0.871521 -2.461334,2.050629q-1.384491,1.179047 -3.845825,3.229614q-2.461334,2.050537 -3.743286,3.024597q-1.281952,0.973999 -2.461334,1.743011q-1.179352,0.768951 -4.307343,2.665802q-3.127899,1.896698 -4.102203,2.563202q-0.974274,0.666412 -2.204956,1.384064q-1.230652,0.717743 -2.563873,1.640472q-1.333191,0.92276 -1.948517,1.332855q-0.615387,0.410187 -2.666504,1.435455q-2.051056,1.025269 -4.922638,2.358154q-2.871552,1.332916 -3.999664,1.743011l-1.128082,0.410126l-1.230682,-0.307587q-1.230652,-0.307617 -2.666473,-1.02536q-1.43576,-0.717621 -4.820068,-2.460632q-3.384338,-1.742981 -3.897156,-2.153168q-0.512756,-0.410095 -2.615112,-1.79422q-2.102386,-1.384125 -3.17926,-2.050598q-1.076813,-0.666412 -4.204742,-2.563263q-3.12796,-1.896667 -4.307343,-2.665649q-1.179382,-0.769012 -2.461334,-1.743042q-1.281952,-0.973969 -2.922791,-2.306885q-1.6409,-1.332886 -4.358643,-3.639801q-2.717743,-2.306854 -4.71756,-3.998627q-1.999817,-1.691681 -5.845673,-5.126404q-3.845825,-3.434723 -4.922668,-4.306213q-1.076813,-0.87149 -4.717499,-4.101135q-3.640717,-3.229675 -4.050964,-3.639801q-0.410248,-0.410126 -3.640717,-3.639801q-3.230499,-3.229614 -4.512451,-4.61377q-1.281952,-1.384125 -5.640549,-6.151733q-4.358612,-4.767548 -5.230362,-5.844086q-0.871674,-1.076599 -2.563843,-3.178436q-1.692169,-2.101837 -2.666443,-3.383453q-0.974335,-1.281647 -1.948563,-2.665771q-0.974304,-1.384125 -2.051086,-2.870819q-1.076859,-1.486664 -1.948578,-2.665741q-0.871704,-1.179077 -1.487061,-2.101807q-0.615311,-0.922791 -1.692154,-2.409424q-1.076843,-1.486694 -1.846039,-2.665771q-0.76915,-1.179077 -2.051086,-3.075867q-1.281906,-1.89682 -1.948547,-2.973358q-0.666595,-1.076569 -2.153641,-3.383453q-1.487061,-2.306854 -1.948608,-3.178406q-0.461472,-0.87146 -2.563843,-4.408752q-2.102386,-3.537201 -2.769028,-4.613708q-0.666565,-1.076599 -3.333054,-5.895447q-2.666428,-4.818848 -3.999634,-7.279572q-1.333237,-2.460663 -2.358795,-4.6138q-1.025558,-2.153076 -2.871582,-6.45932q-1.845947,-4.306213 -1.845947,-4.408752q0,-0.102509 -1.846008,-4.716339q-1.846008,-4.6138 -2.871536,-7.27951q-1.025589,-2.665771 -2.871567,-8.099792q-1.846024,-5.434052 -3.692017,-11.585739q-1.845978,-6.151749 -4.102203,-14.969223q-2.256226,-8.81749 -3.17923,-13.123703q-0.923004,-4.306229 -2.563873,-12.508514q-1.640869,-8.202301 -1.948578,-10.765533q-0.307663,-2.563217 -1.333221,-15.686905q-1.025558,-13.123688 -1.333206,-19.788055q-0.307663,-6.664444 -0.71788,-14.149017q-0.410233,-7.484619 -1.128098,-24.504387q-0.717911,-17.019791 -0.717911,-24.094254l0,-7.074509l0.666611,-0.358864q0.666611,-0.358856 3.640732,-0.871506q2.974091,-0.512611 8.204453,-1.33287q5.230286,-0.820221 15.896057,-2.665749q10.665787,-1.84552 15.280792,-2.665749q4.615005,-0.820213 12.204086,-2.563194q7.589111,-1.743004 13.127121,-3.280937q5.537979,-1.537941 9.537643,-2.870827q3.99968,-1.332848 6.255905,-2.05056q2.256226,-0.717712 4.307312,-1.43541q2.051086,-0.717697 8.204437,-3.075859q6.153351,-2.358177 11.537476,-4.767593q5.384155,-2.409424 5.743134,-2.460701q0.358917,-0.051258 5.179077,-2.3069q4.820068,-2.25563 8.717224,-4.101158q3.897034,-1.845516 7.69165,-3.691025q3.794525,-1.845524 9.435089,-4.818863l5.640533,-2.973339l1.333191,0z" id="path2" stroke-width="2px" stroke="#000000" fill-rule="evenodd" fill="#000000"/>
 </g>

</svg>